<svg width="200" height="85" viewBox="0 0 426 154" fill="none" xmlns="http://www.w3.org/2000/svg">
<path fill-rule="evenodd" clip-rule="evenodd" d="M30.9152 134.751C34.0087 141.362 38.4164 146.219 44.1381 149.319L44.1075 149.338C49.829 152.443 56.325 153.995 63.5958 153.995C70.1322 154.092 76.6101 152.745 82.5688 150.05C88.2109 147.426 93.1831 143.549 97.11 138.714C101.156 133.766 104.256 127.757 106.41 120.687C108.563 113.617 109.64 105.629 109.64 96.7239C109.717 89.008 108.592 81.3273 106.305 73.9592C104.321 67.4366 101.158 61.3345 96.975 55.9563C93.0529 50.9886 88.0885 46.9465 82.4341 44.1162C76.5206 41.2228 70.0098 39.7681 63.4302 39.8705C55.8736 39.8664 49.5389 41.4844 44.4263 44.7245C39.159 48.1134 34.6825 52.6003 31.3013 57.8795H30.6883C30.9538 54.6435 31.1887 50.832 31.3932 46.4449C31.5976 42.0578 31.6997 37.5725 31.6997 32.9888V0H0V150.536H30.5105V134.751H30.9152ZM77.3275 96.5211C77.3275 106.237 75.4762 113.996 71.7735 119.796L71.798 119.777C68.0995 125.578 62.5472 128.478 55.1421 128.478C47.4708 128.478 41.4815 125.543 37.1742 119.673C32.8665 113.803 30.7128 106.147 30.7128 96.7055C30.6877 92.3479 31.1627 88.002 32.1289 83.7532C32.9264 80.0359 34.4242 76.5052 36.5426 73.3509C38.5056 70.5047 41.096 68.1499 44.1135 66.4692C47.4391 64.7144 51.1583 63.8449 54.9152 63.9439C62.4757 63.9439 68.0953 66.9444 71.7735 72.9454C75.4762 78.9463 77.3275 86.805 77.3275 96.5211Z" fill="#040404"/>
<path fill-rule="evenodd" clip-rule="evenodd" d="M182.769 137.424C182.967 140.128 183.441 142.804 184.185 145.411L184.197 145.442C184.693 147.258 185.44 148.995 186.416 150.603H217.288V148.76C214.599 147.003 213.254 142.012 213.254 133.786V78.5428C213.258 71.2557 211.945 64.882 209.313 59.4217C206.624 53.8855 202.286 49.323 196.899 46.365C192.843 43.9633 188.402 42.2856 183.774 41.4066C177.912 40.3175 171.957 39.8092 165.996 39.8889C158.035 39.893 151.104 40.872 145.202 42.8259C139.301 44.7798 134.396 47.4096 130.489 50.7153C126.832 53.7507 123.861 57.5311 121.772 61.8055C119.684 66.0799 118.526 70.7505 118.376 75.5076H147.679C148.083 71.1861 149.8 67.7453 152.828 65.1851C155.857 62.625 160.399 61.3449 166.456 61.3449C171.973 61.3408 176.011 62.5205 178.569 64.884C181.128 67.2475 182.407 70.3832 182.407 74.2909C182.407 78.338 180.286 81.3058 176.043 83.1941C171.801 85.0825 164.903 86.7025 155.348 88.0542C149.773 88.6582 144.244 89.627 138.796 90.9543C134.063 92.0885 129.548 93.994 125.432 96.5949C121.704 98.979 118.617 102.245 116.445 106.106C114.226 110.002 113.116 114.917 113.116 120.853C113.028 125.681 113.958 130.473 115.844 134.917C117.551 138.889 120.181 142.394 123.513 145.141C126.989 147.92 130.963 150.006 135.222 151.285C139.965 152.738 144.902 153.455 149.861 153.411C158.215 153.411 164.843 151.994 169.748 149.16C174.768 146.229 179.078 142.221 182.37 137.424H182.769ZM181.592 119.995C180.495 122.541 178.862 124.818 176.804 126.671L176.828 126.69C172.59 130.606 166.903 132.564 159.768 132.564C155.456 132.56 151.753 131.613 148.66 129.725C145.566 127.837 144.019 124.533 144.019 119.814C144.011 115.091 145.693 111.651 149.064 109.492C152.436 107.333 157.618 105.512 164.611 104.029C168.113 103.21 171.505 102.36 174.787 101.48C177.745 100.746 180.571 99.5515 183.161 97.9405V111.925C183.225 114.697 182.69 117.45 181.592 119.995Z" fill="#040404"/>
<path d="M248.816 151.341C243.126 149.824 237.757 147.286 232.969 143.851C228.728 140.789 225.216 136.823 222.685 132.239C220.154 127.655 218.667 122.566 218.33 117.338H248.209C249.153 122.467 251.475 126.38 255.173 129.08C258.872 131.779 263.819 133.127 270.015 133.123C275.667 133.123 280.042 132.044 283.14 129.885C286.237 127.726 287.778 124.699 287.762 120.803C287.81 119.726 287.638 118.649 287.256 117.64C286.875 116.631 286.292 115.711 285.543 114.936C283.808 113.3 281.742 112.057 279.486 111.292C276.636 110.262 273.703 109.476 270.72 108.945C267.422 108.335 263.889 107.694 260.12 107.022C255.277 106.076 250.567 104.996 245.99 103.784C241.612 102.657 237.451 100.811 233.674 98.3214C230.039 95.8894 227.029 92.6303 224.89 88.8101C222.67 84.894 221.561 79.7738 221.561 73.4492C221.561 67.9152 222.738 63.0572 225.092 58.8749C227.455 54.6881 230.733 51.0919 234.68 48.3559C239.036 45.379 243.894 43.2162 249.018 41.9719C254.832 40.52 260.805 39.8059 266.796 39.8459C281.738 39.8459 293.044 42.7809 300.715 48.6508C304.407 51.3772 307.522 54.8115 309.879 58.7542C312.236 62.6968 313.789 67.0694 314.447 71.6182H284.967C282.952 63.9337 276.895 60.0894 266.796 60.0853C261.953 60.0853 258.083 61.0295 255.186 62.9179C253.811 63.7595 252.684 64.9525 251.922 66.3746C251.159 67.7966 250.787 69.3965 250.845 71.01C250.813 71.9329 250.976 72.8522 251.325 73.707C251.674 74.5619 252.2 75.3327 252.868 75.9684C254.502 77.4155 256.43 78.487 258.52 79.1081C261.29 80.0011 264.124 80.6768 266.999 81.1296C270.231 81.6703 273.664 82.2847 277.297 82.9729C282.141 83.7921 286.986 84.8367 291.832 86.1065C296.49 87.3054 300.923 89.2538 304.957 91.8761C308.905 94.486 312.188 97.9853 314.545 102.094C317.034 106.346 318.278 111.843 318.278 118.585C318.278 124.386 317.069 129.506 314.649 133.946C312.215 138.409 308.753 142.226 304.553 145.08C299.884 148.206 294.693 150.466 289.227 151.752C282.881 153.289 276.371 154.038 269.843 153.983C262.757 154.074 255.692 153.189 248.847 151.353L248.816 151.341Z" fill="#040404"/>
<path d="M355.888 47.5509V43.5018L355.869 43.5264V0.018451H324.17V150.554H355.869V89.8423C355.869 82.9647 357.754 77.2996 361.522 72.847C365.289 68.3945 370.269 66.1682 376.461 66.1682C382.383 66.1764 386.858 67.9644 389.886 71.5321C392.915 75.1 394.429 79.8557 394.429 85.7993V150.554H426V79.7287C426 67.5834 422.73 57.9021 416.192 50.6845C409.652 43.4669 400.457 39.8582 388.605 39.8582C381.073 39.8582 374.612 41.4783 369.221 44.7184C363.787 48.0066 359.327 52.6876 356.298 58.2789H355.685C355.685 56.497 355.716 54.6968 355.784 52.8104C355.851 50.9241 355.888 49.1669 355.888 47.5509Z" fill="#040404"/>
</svg>
